<svg width="500" height="200" viewBox="0 0 500 200" fill="none" xmlns="http://www.w3.org/2000/svg">
<path d="M230.549 59.5648C230.527 59.7598 230.486 59.9521 230.426 60.1391L212.619 115.948C212.223 117.192 211.067 118.036 209.761 118.036H201.274C199.195 118.036 197.746 115.972 198.452 114.016L221.644 49.8365C222.073 48.648 223.201 47.856 224.465 47.856H228.516C230.307 47.856 231.698 49.4145 231.497 51.1937L230.549 59.5648ZM248.128 118.036C246.823 118.036 245.668 117.193 245.27 115.95L227.413 60.1234C227.357 59.9468 227.317 59.7654 227.294 59.5814L226.25 51.2281C226.026 49.4375 227.422 47.856 229.226 47.856H233.336C234.597 47.856 235.724 48.6456 236.155 49.8315L259.475 114.011C260.186 115.968 258.737 118.036 256.656 118.036H248.128ZM242.094 91.9113C243.751 91.9113 245.094 93.2545 245.094 94.9113V100.238C245.094 101.895 243.751 103.238 242.094 103.238H212.047C210.39 103.238 209.047 101.895 209.047 100.238V94.9113C209.047 93.2545 210.39 91.9113 212.047 91.9113H242.094Z" fill="white"/>
<path d="M277.672 44C279.329 44 280.672 45.3431 280.672 47V115.036C280.672 116.693 279.329 118.036 277.672 118.036H270.125C268.468 118.036 267.125 116.693 267.125 115.036V47C267.125 45.3432 268.468 44 270.125 44H277.672Z" fill="white"/>
<path d="M303.078 44C304.735 44 306.078 45.3431 306.078 47V115.036C306.078 116.693 304.735 118.036 303.078 118.036H295.531C293.874 118.036 292.531 116.693 292.531 115.036V47C292.531 45.3432 293.874 44 295.531 44H303.078Z" fill="white"/>
<path d="M315.078 92.4897V91.4775C315.078 87.6536 315.609 84.135 316.672 80.9216C317.734 77.6761 319.281 74.8644 321.312 72.4865C323.344 70.1086 325.844 68.2609 328.812 66.9434C331.781 65.5938 335.188 64.919 339.031 64.919C342.875 64.919 346.297 65.5938 349.297 66.9434C352.297 68.2609 354.812 70.1086 356.844 72.4865C358.906 74.8644 360.469 77.6761 361.531 80.9216C362.594 84.135 363.125 87.6536 363.125 91.4775V92.4897C363.125 96.2815 362.594 99.8001 361.531 103.046C360.469 106.259 358.906 109.071 356.844 111.481C354.812 113.859 352.312 115.706 349.344 117.024C346.375 118.341 342.969 119 339.125 119C335.281 119 331.859 118.341 328.859 117.024C325.891 115.706 323.375 113.859 321.312 111.481C319.281 109.071 317.734 106.259 316.672 103.046C315.609 99.8001 315.078 96.2815 315.078 92.4897ZM328.578 91.4775V92.4897C328.578 94.6748 328.766 96.7153 329.141 98.6112C329.516 100.507 330.109 102.178 330.922 103.624C331.766 105.038 332.859 106.147 334.203 106.95C335.547 107.753 337.188 108.155 339.125 108.155C341 108.155 342.609 107.753 343.953 106.95C345.297 106.147 346.375 105.038 347.188 103.624C348 102.178 348.594 100.507 348.969 98.6112C349.375 96.7153 349.578 94.6748 349.578 92.4897V91.4775C349.578 89.3567 349.375 87.3644 348.969 85.5006C348.594 83.6048 347.984 81.9338 347.141 80.4878C346.328 79.0096 345.25 77.8528 343.906 77.0174C342.562 76.1819 340.938 75.7641 339.031 75.7641C337.125 75.7641 335.5 76.1819 334.156 77.0174C332.844 77.8528 331.766 79.0096 330.922 80.4878C330.109 81.9338 329.516 83.6048 329.141 85.5006C328.766 87.3644 328.578 89.3567 328.578 91.4775Z" fill="white"/>
<path d="M385.881 104.788C385.898 104.623 385.928 104.459 385.972 104.299L395.85 68.0934C396.206 66.7884 397.392 65.883 398.744 65.883H401.435C403.308 65.883 404.722 67.5788 404.387 69.4206L402.266 81.0662L392.34 115.859C391.972 117.147 390.795 118.036 389.455 118.036H387.864C386.089 118.036 384.701 116.502 384.879 114.735L385.881 104.788ZM378.092 65.883C379.527 65.883 380.761 66.8992 381.036 68.3075L388.109 104.492L388.649 114.88C388.738 116.596 387.371 118.036 385.653 118.036H382.726C381.345 118.036 380.143 117.094 379.813 115.753L368.447 69.6004C367.981 67.7095 369.412 65.883 371.36 65.883H378.092ZM414.688 103.865L421.576 68.3124C421.849 66.9018 423.085 65.883 424.521 65.883H431.297C433.244 65.883 434.675 67.7095 434.21 69.6004L422.843 115.753C422.513 117.094 421.311 118.036 419.93 118.036H417.064C415.341 118.036 413.972 116.588 414.069 114.868L414.688 103.865ZM403.914 65.883C405.266 65.883 406.451 66.7872 406.807 68.0911L416.639 104.016C416.682 104.172 416.712 104.332 416.729 104.493L417.807 114.721C417.994 116.493 416.605 118.036 414.823 118.036H413.201C411.861 118.036 410.684 117.148 410.316 115.86L400.391 81.1144L398.336 69.4014C398.014 67.5653 399.427 65.883 401.291 65.883H403.914Z" fill="white"/>
<path d="M453.172 65.883C454.829 65.883 456.172 67.2262 456.172 68.883V115.036C456.172 116.693 454.829 118.036 453.172 118.036H445.625C443.968 118.036 442.625 116.693 442.625 115.036V68.883C442.625 67.2262 443.968 65.883 445.625 65.883H453.172Z" fill="white"/>
<path d="M441.781 50.9891C441.781 48.9647 442.469 47.2937 443.844 45.9762C445.219 44.6587 447.062 44 449.375 44C451.656 44 453.484 44.6587 454.859 45.9762C456.266 47.2937 456.969 48.9647 456.969 50.9891C456.969 53.0135 456.266 54.6844 454.859 56.0019C453.484 57.3194 451.656 57.9781 449.375 57.9781C447.062 57.9781 445.219 57.3194 443.844 56.0019C442.469 54.6844 441.781 53.0135 441.781 50.9891Z" fill="#01B2DD"/>
<path d="M206.229 149.406C206.229 149.074 206.176 148.781 206.072 148.527C205.975 148.267 205.799 148.033 205.545 147.824C205.298 147.616 204.952 147.417 204.51 147.229C204.074 147.04 203.52 146.848 202.85 146.652C202.146 146.444 201.512 146.213 200.945 145.959C200.379 145.699 199.894 145.402 199.49 145.07C199.087 144.738 198.777 144.357 198.562 143.928C198.348 143.498 198.24 143.007 198.24 142.453C198.24 141.9 198.354 141.389 198.582 140.92C198.81 140.451 199.135 140.044 199.559 139.699C199.988 139.348 200.499 139.074 201.092 138.879C201.684 138.684 202.345 138.586 203.074 138.586C204.142 138.586 205.047 138.791 205.789 139.201C206.538 139.605 207.107 140.135 207.498 140.793C207.889 141.444 208.084 142.141 208.084 142.883H206.209C206.209 142.349 206.095 141.877 205.867 141.467C205.639 141.05 205.294 140.725 204.832 140.49C204.37 140.249 203.784 140.129 203.074 140.129C202.404 140.129 201.85 140.23 201.414 140.432C200.978 140.633 200.652 140.907 200.438 141.252C200.229 141.597 200.125 141.991 200.125 142.434C200.125 142.733 200.187 143.007 200.311 143.254C200.441 143.495 200.639 143.719 200.906 143.928C201.18 144.136 201.525 144.328 201.941 144.504C202.365 144.68 202.869 144.849 203.455 145.012C204.262 145.24 204.959 145.493 205.545 145.773C206.131 146.053 206.613 146.369 206.99 146.721C207.374 147.066 207.658 147.46 207.84 147.902C208.029 148.339 208.123 148.833 208.123 149.387C208.123 149.966 208.006 150.49 207.771 150.959C207.537 151.428 207.202 151.828 206.766 152.16C206.329 152.492 205.805 152.749 205.193 152.932C204.588 153.107 203.911 153.195 203.162 153.195C202.505 153.195 201.857 153.104 201.219 152.922C200.587 152.74 200.011 152.466 199.49 152.102C198.976 151.737 198.562 151.288 198.25 150.754C197.944 150.214 197.791 149.589 197.791 148.879H199.666C199.666 149.367 199.76 149.787 199.949 150.139C200.138 150.484 200.395 150.77 200.721 150.998C201.053 151.226 201.427 151.395 201.844 151.506C202.267 151.61 202.706 151.662 203.162 151.662C203.82 151.662 204.376 151.571 204.832 151.389C205.288 151.206 205.633 150.946 205.867 150.607C206.108 150.269 206.229 149.868 206.229 149.406ZM212.049 144.533V153H210.232V142.434H211.951L212.049 144.533ZM211.678 147.316L210.838 147.287C210.844 146.564 210.939 145.897 211.121 145.285C211.303 144.667 211.574 144.13 211.932 143.674C212.29 143.218 212.736 142.867 213.27 142.619C213.803 142.365 214.422 142.238 215.125 142.238C215.62 142.238 216.076 142.31 216.492 142.453C216.909 142.59 217.27 142.808 217.576 143.107C217.882 143.407 218.12 143.791 218.289 144.26C218.458 144.729 218.543 145.295 218.543 145.959V153H216.736V146.047C216.736 145.493 216.642 145.051 216.453 144.719C216.271 144.387 216.01 144.146 215.672 143.996C215.333 143.84 214.936 143.762 214.48 143.762C213.947 143.762 213.501 143.856 213.143 144.045C212.785 144.234 212.498 144.494 212.283 144.826C212.068 145.158 211.912 145.539 211.814 145.969C211.723 146.392 211.678 146.841 211.678 147.316ZM218.523 146.32L217.312 146.691C217.319 146.112 217.413 145.555 217.596 145.021C217.785 144.488 218.055 144.012 218.406 143.596C218.764 143.179 219.204 142.85 219.725 142.609C220.245 142.362 220.841 142.238 221.512 142.238C222.078 142.238 222.579 142.313 223.016 142.463C223.458 142.613 223.829 142.844 224.129 143.156C224.435 143.462 224.666 143.856 224.822 144.338C224.979 144.82 225.057 145.393 225.057 146.057V153H223.24V146.037C223.24 145.445 223.146 144.986 222.957 144.66C222.775 144.328 222.514 144.097 222.176 143.967C221.844 143.83 221.447 143.762 220.984 143.762C220.587 143.762 220.236 143.83 219.93 143.967C219.624 144.104 219.367 144.292 219.158 144.533C218.95 144.768 218.79 145.038 218.68 145.344C218.576 145.65 218.523 145.975 218.523 146.32ZM234.021 151.193V145.754C234.021 145.337 233.937 144.976 233.768 144.67C233.605 144.357 233.357 144.117 233.025 143.947C232.693 143.778 232.283 143.693 231.795 143.693C231.339 143.693 230.939 143.771 230.594 143.928C230.255 144.084 229.988 144.289 229.793 144.543C229.604 144.797 229.51 145.07 229.51 145.363H227.703C227.703 144.986 227.801 144.611 227.996 144.24C228.191 143.869 228.471 143.534 228.836 143.234C229.207 142.928 229.65 142.688 230.164 142.512C230.685 142.329 231.264 142.238 231.902 142.238C232.671 142.238 233.348 142.368 233.934 142.629C234.526 142.889 234.988 143.283 235.32 143.811C235.659 144.331 235.828 144.986 235.828 145.773V150.695C235.828 151.047 235.857 151.421 235.916 151.818C235.981 152.215 236.076 152.557 236.199 152.844V153H234.314C234.223 152.792 234.152 152.515 234.1 152.17C234.048 151.818 234.021 151.493 234.021 151.193ZM234.334 146.594L234.354 147.863H232.527C232.013 147.863 231.554 147.906 231.15 147.99C230.747 148.068 230.408 148.189 230.135 148.352C229.861 148.514 229.653 148.719 229.51 148.967C229.367 149.208 229.295 149.491 229.295 149.816C229.295 150.148 229.37 150.451 229.52 150.725C229.669 150.998 229.894 151.216 230.193 151.379C230.499 151.535 230.874 151.613 231.316 151.613C231.87 151.613 232.358 151.496 232.781 151.262C233.204 151.027 233.54 150.741 233.787 150.402C234.041 150.064 234.178 149.735 234.197 149.416L234.969 150.285C234.923 150.559 234.799 150.861 234.598 151.193C234.396 151.525 234.126 151.844 233.787 152.15C233.455 152.45 233.058 152.701 232.596 152.902C232.14 153.098 231.626 153.195 231.053 153.195C230.337 153.195 229.708 153.055 229.168 152.775C228.634 152.495 228.217 152.121 227.918 151.652C227.625 151.177 227.479 150.646 227.479 150.061C227.479 149.494 227.589 148.996 227.811 148.566C228.032 148.13 228.351 147.769 228.768 147.482C229.184 147.189 229.686 146.968 230.271 146.818C230.857 146.669 231.512 146.594 232.234 146.594H234.334ZM240.477 144.094V153H238.67V142.434H240.428L240.477 144.094ZM243.777 142.375L243.768 144.055C243.618 144.022 243.475 144.003 243.338 143.996C243.208 143.983 243.058 143.977 242.889 143.977C242.472 143.977 242.104 144.042 241.785 144.172C241.466 144.302 241.196 144.484 240.975 144.719C240.753 144.953 240.577 145.233 240.447 145.559C240.324 145.878 240.242 146.229 240.203 146.613L239.695 146.906C239.695 146.268 239.757 145.669 239.881 145.109C240.011 144.549 240.21 144.055 240.477 143.625C240.743 143.189 241.082 142.85 241.492 142.609C241.909 142.362 242.404 142.238 242.977 142.238C243.107 142.238 243.257 142.255 243.426 142.287C243.595 142.313 243.712 142.342 243.777 142.375ZM250.359 142.434V143.82H244.646V142.434H250.359ZM246.58 139.865H248.387V150.383C248.387 150.741 248.442 151.011 248.553 151.193C248.663 151.376 248.807 151.496 248.982 151.555C249.158 151.613 249.347 151.643 249.549 151.643C249.699 151.643 249.855 151.63 250.018 151.604C250.187 151.571 250.314 151.545 250.398 151.525L250.408 153C250.265 153.046 250.076 153.088 249.842 153.127C249.614 153.173 249.337 153.195 249.012 153.195C248.569 153.195 248.162 153.107 247.791 152.932C247.42 152.756 247.124 152.463 246.902 152.053C246.688 151.636 246.58 151.076 246.58 150.373V139.865ZM265.291 149.406C265.291 149.074 265.239 148.781 265.135 148.527C265.037 148.267 264.861 148.033 264.607 147.824C264.36 147.616 264.015 147.417 263.572 147.229C263.136 147.04 262.583 146.848 261.912 146.652C261.209 146.444 260.574 146.213 260.008 145.959C259.441 145.699 258.956 145.402 258.553 145.07C258.149 144.738 257.84 144.357 257.625 143.928C257.41 143.498 257.303 143.007 257.303 142.453C257.303 141.9 257.417 141.389 257.645 140.92C257.872 140.451 258.198 140.044 258.621 139.699C259.051 139.348 259.562 139.074 260.154 138.879C260.747 138.684 261.408 138.586 262.137 138.586C263.204 138.586 264.109 138.791 264.852 139.201C265.6 139.605 266.17 140.135 266.561 140.793C266.951 141.444 267.146 142.141 267.146 142.883H265.271C265.271 142.349 265.158 141.877 264.93 141.467C264.702 141.05 264.357 140.725 263.895 140.49C263.432 140.249 262.846 140.129 262.137 140.129C261.466 140.129 260.913 140.23 260.477 140.432C260.04 140.633 259.715 140.907 259.5 141.252C259.292 141.597 259.188 141.991 259.188 142.434C259.188 142.733 259.249 143.007 259.373 143.254C259.503 143.495 259.702 143.719 259.969 143.928C260.242 144.136 260.587 144.328 261.004 144.504C261.427 144.68 261.932 144.849 262.518 145.012C263.325 145.24 264.021 145.493 264.607 145.773C265.193 146.053 265.675 146.369 266.053 146.721C266.437 147.066 266.72 147.46 266.902 147.902C267.091 148.339 267.186 148.833 267.186 149.387C267.186 149.966 267.068 150.49 266.834 150.959C266.6 151.428 266.264 151.828 265.828 152.16C265.392 152.492 264.868 152.749 264.256 152.932C263.65 153.107 262.973 153.195 262.225 153.195C261.567 153.195 260.919 153.104 260.281 152.922C259.65 152.74 259.074 152.466 258.553 152.102C258.038 151.737 257.625 151.288 257.312 150.754C257.007 150.214 256.854 149.589 256.854 148.879H258.729C258.729 149.367 258.823 149.787 259.012 150.139C259.201 150.484 259.458 150.77 259.783 150.998C260.115 151.226 260.49 151.395 260.906 151.506C261.329 151.61 261.769 151.662 262.225 151.662C262.882 151.662 263.439 151.571 263.895 151.389C264.35 151.206 264.695 150.946 264.93 150.607C265.171 150.269 265.291 149.868 265.291 149.406ZM275.545 151.193V145.754C275.545 145.337 275.46 144.976 275.291 144.67C275.128 144.357 274.881 144.117 274.549 143.947C274.217 143.778 273.807 143.693 273.318 143.693C272.863 143.693 272.462 143.771 272.117 143.928C271.779 144.084 271.512 144.289 271.316 144.543C271.128 144.797 271.033 145.07 271.033 145.363H269.227C269.227 144.986 269.324 144.611 269.52 144.24C269.715 143.869 269.995 143.534 270.359 143.234C270.73 142.928 271.173 142.688 271.688 142.512C272.208 142.329 272.788 142.238 273.426 142.238C274.194 142.238 274.871 142.368 275.457 142.629C276.049 142.889 276.512 143.283 276.844 143.811C277.182 144.331 277.352 144.986 277.352 145.773V150.695C277.352 151.047 277.381 151.421 277.439 151.818C277.505 152.215 277.599 152.557 277.723 152.844V153H275.838C275.747 152.792 275.675 152.515 275.623 152.17C275.571 151.818 275.545 151.493 275.545 151.193ZM275.857 146.594L275.877 147.863H274.051C273.536 147.863 273.077 147.906 272.674 147.99C272.27 148.068 271.932 148.189 271.658 148.352C271.385 148.514 271.176 148.719 271.033 148.967C270.89 149.208 270.818 149.491 270.818 149.816C270.818 150.148 270.893 150.451 271.043 150.725C271.193 150.998 271.417 151.216 271.717 151.379C272.023 151.535 272.397 151.613 272.84 151.613C273.393 151.613 273.882 151.496 274.305 151.262C274.728 151.027 275.063 150.741 275.311 150.402C275.564 150.064 275.701 149.735 275.721 149.416L276.492 150.285C276.447 150.559 276.323 150.861 276.121 151.193C275.919 151.525 275.649 151.844 275.311 152.15C274.979 152.45 274.581 152.701 274.119 152.902C273.663 153.098 273.149 153.195 272.576 153.195C271.86 153.195 271.232 153.055 270.691 152.775C270.158 152.495 269.741 152.121 269.441 151.652C269.148 151.177 269.002 150.646 269.002 150.061C269.002 149.494 269.113 148.996 269.334 148.566C269.555 148.13 269.874 147.769 270.291 147.482C270.708 147.189 271.209 146.968 271.795 146.818C272.381 146.669 273.035 146.594 273.758 146.594H275.857ZM282.889 153H281.082V141.32C281.082 140.559 281.219 139.917 281.492 139.396C281.772 138.869 282.173 138.472 282.693 138.205C283.214 137.932 283.833 137.795 284.549 137.795C284.757 137.795 284.965 137.808 285.174 137.834C285.389 137.86 285.597 137.899 285.799 137.951L285.701 139.426C285.564 139.393 285.408 139.37 285.232 139.357C285.063 139.344 284.894 139.338 284.725 139.338C284.34 139.338 284.008 139.416 283.729 139.572C283.455 139.722 283.247 139.943 283.104 140.236C282.96 140.529 282.889 140.891 282.889 141.32V153ZM285.135 142.434V143.82H279.412V142.434H285.135ZM291.297 153.195C290.561 153.195 289.894 153.072 289.295 152.824C288.702 152.57 288.191 152.215 287.762 151.76C287.339 151.304 287.013 150.764 286.785 150.139C286.557 149.514 286.443 148.83 286.443 148.088V147.678C286.443 146.818 286.57 146.053 286.824 145.383C287.078 144.706 287.423 144.133 287.859 143.664C288.296 143.195 288.79 142.84 289.344 142.6C289.897 142.359 290.47 142.238 291.062 142.238C291.818 142.238 292.469 142.368 293.016 142.629C293.569 142.889 294.021 143.254 294.373 143.723C294.725 144.185 294.985 144.732 295.154 145.363C295.324 145.988 295.408 146.672 295.408 147.414V148.225H287.518V146.75H293.602V146.613C293.576 146.145 293.478 145.689 293.309 145.246C293.146 144.803 292.885 144.439 292.527 144.152C292.169 143.866 291.681 143.723 291.062 143.723C290.652 143.723 290.275 143.811 289.93 143.986C289.585 144.156 289.288 144.41 289.041 144.748C288.794 145.087 288.602 145.5 288.465 145.988C288.328 146.477 288.26 147.04 288.26 147.678V148.088C288.26 148.589 288.328 149.061 288.465 149.504C288.608 149.94 288.813 150.324 289.08 150.656C289.354 150.988 289.682 151.249 290.066 151.438C290.457 151.626 290.9 151.721 291.395 151.721C292.033 151.721 292.573 151.59 293.016 151.33C293.458 151.07 293.846 150.721 294.178 150.285L295.271 151.154C295.044 151.499 294.754 151.828 294.402 152.141C294.051 152.453 293.618 152.707 293.104 152.902C292.596 153.098 291.993 153.195 291.297 153.195ZM310.33 149.406C310.33 149.074 310.278 148.781 310.174 148.527C310.076 148.267 309.9 148.033 309.646 147.824C309.399 147.616 309.054 147.417 308.611 147.229C308.175 147.04 307.622 146.848 306.951 146.652C306.248 146.444 305.613 146.213 305.047 145.959C304.48 145.699 303.995 145.402 303.592 145.07C303.188 144.738 302.879 144.357 302.664 143.928C302.449 143.498 302.342 143.007 302.342 142.453C302.342 141.9 302.456 141.389 302.684 140.92C302.911 140.451 303.237 140.044 303.66 139.699C304.09 139.348 304.601 139.074 305.193 138.879C305.786 138.684 306.447 138.586 307.176 138.586C308.243 138.586 309.148 138.791 309.891 139.201C310.639 139.605 311.209 140.135 311.6 140.793C311.99 141.444 312.186 142.141 312.186 142.883H310.311C310.311 142.349 310.197 141.877 309.969 141.467C309.741 141.05 309.396 140.725 308.934 140.49C308.471 140.249 307.885 140.129 307.176 140.129C306.505 140.129 305.952 140.23 305.516 140.432C305.079 140.633 304.754 140.907 304.539 141.252C304.331 141.597 304.227 141.991 304.227 142.434C304.227 142.733 304.288 143.007 304.412 143.254C304.542 143.495 304.741 143.719 305.008 143.928C305.281 144.136 305.626 144.328 306.043 144.504C306.466 144.68 306.971 144.849 307.557 145.012C308.364 145.24 309.061 145.493 309.646 145.773C310.232 146.053 310.714 146.369 311.092 146.721C311.476 147.066 311.759 147.46 311.941 147.902C312.13 148.339 312.225 148.833 312.225 149.387C312.225 149.966 312.107 150.49 311.873 150.959C311.639 151.428 311.303 151.828 310.867 152.16C310.431 152.492 309.907 152.749 309.295 152.932C308.689 153.107 308.012 153.195 307.264 153.195C306.606 153.195 305.958 153.104 305.32 152.922C304.689 152.74 304.113 152.466 303.592 152.102C303.077 151.737 302.664 151.288 302.352 150.754C302.046 150.214 301.893 149.589 301.893 148.879H303.768C303.768 149.367 303.862 149.787 304.051 150.139C304.24 150.484 304.497 150.77 304.822 150.998C305.154 151.226 305.529 151.395 305.945 151.506C306.368 151.61 306.808 151.662 307.264 151.662C307.921 151.662 308.478 151.571 308.934 151.389C309.389 151.206 309.734 150.946 309.969 150.607C310.21 150.269 310.33 149.868 310.33 149.406ZM316.16 144.465V157.062H314.344V142.434H316.004L316.16 144.465ZM323.279 147.629V147.834C323.279 148.602 323.188 149.315 323.006 149.973C322.824 150.624 322.557 151.19 322.205 151.672C321.86 152.154 321.434 152.528 320.926 152.795C320.418 153.062 319.835 153.195 319.178 153.195C318.507 153.195 317.915 153.085 317.4 152.863C316.886 152.642 316.45 152.32 316.092 151.896C315.734 151.473 315.447 150.965 315.232 150.373C315.024 149.781 314.881 149.113 314.803 148.371V147.277C314.881 146.496 315.027 145.796 315.242 145.178C315.457 144.559 315.74 144.032 316.092 143.596C316.45 143.153 316.883 142.818 317.391 142.59C317.898 142.355 318.484 142.238 319.148 142.238C319.812 142.238 320.402 142.368 320.916 142.629C321.43 142.883 321.863 143.247 322.215 143.723C322.566 144.198 322.83 144.768 323.006 145.432C323.188 146.089 323.279 146.822 323.279 147.629ZM321.463 147.834V147.629C321.463 147.102 321.408 146.607 321.297 146.145C321.186 145.676 321.014 145.266 320.779 144.914C320.551 144.556 320.258 144.276 319.9 144.074C319.542 143.866 319.116 143.762 318.621 143.762C318.165 143.762 317.768 143.84 317.43 143.996C317.098 144.152 316.814 144.364 316.58 144.631C316.346 144.891 316.154 145.191 316.004 145.529C315.861 145.861 315.753 146.206 315.682 146.564V149.094C315.812 149.549 315.994 149.979 316.229 150.383C316.463 150.78 316.775 151.102 317.166 151.35C317.557 151.59 318.048 151.711 318.641 151.711C319.129 151.711 319.549 151.61 319.9 151.408C320.258 151.2 320.551 150.917 320.779 150.559C321.014 150.201 321.186 149.79 321.297 149.328C321.408 148.859 321.463 148.361 321.463 147.834ZM329.969 153.195C329.233 153.195 328.566 153.072 327.967 152.824C327.374 152.57 326.863 152.215 326.434 151.76C326.01 151.304 325.685 150.764 325.457 150.139C325.229 149.514 325.115 148.83 325.115 148.088V147.678C325.115 146.818 325.242 146.053 325.496 145.383C325.75 144.706 326.095 144.133 326.531 143.664C326.967 143.195 327.462 142.84 328.016 142.6C328.569 142.359 329.142 142.238 329.734 142.238C330.49 142.238 331.141 142.368 331.688 142.629C332.241 142.889 332.693 143.254 333.045 143.723C333.396 144.185 333.657 144.732 333.826 145.363C333.995 145.988 334.08 146.672 334.08 147.414V148.225H326.189V146.75H332.273V146.613C332.247 146.145 332.15 145.689 331.98 145.246C331.818 144.803 331.557 144.439 331.199 144.152C330.841 143.866 330.353 143.723 329.734 143.723C329.324 143.723 328.947 143.811 328.602 143.986C328.257 144.156 327.96 144.41 327.713 144.748C327.465 145.087 327.273 145.5 327.137 145.988C327 146.477 326.932 147.04 326.932 147.678V148.088C326.932 148.589 327 149.061 327.137 149.504C327.28 149.94 327.485 150.324 327.752 150.656C328.025 150.988 328.354 151.249 328.738 151.438C329.129 151.626 329.572 151.721 330.066 151.721C330.704 151.721 331.245 151.59 331.688 151.33C332.13 151.07 332.518 150.721 332.85 150.285L333.943 151.154C333.715 151.499 333.426 151.828 333.074 152.141C332.723 152.453 332.29 152.707 331.775 152.902C331.268 153.098 330.665 153.195 329.969 153.195ZM337.996 144.689V153H336.189V142.434H337.898L337.996 144.689ZM337.566 147.316L336.814 147.287C336.821 146.564 336.928 145.897 337.137 145.285C337.345 144.667 337.638 144.13 338.016 143.674C338.393 143.218 338.842 142.867 339.363 142.619C339.891 142.365 340.473 142.238 341.111 142.238C341.632 142.238 342.101 142.31 342.518 142.453C342.934 142.59 343.289 142.811 343.582 143.117C343.882 143.423 344.109 143.82 344.266 144.309C344.422 144.79 344.5 145.38 344.5 146.076V153H342.684V146.057C342.684 145.503 342.602 145.061 342.439 144.729C342.277 144.39 342.039 144.146 341.727 143.996C341.414 143.84 341.03 143.762 340.574 143.762C340.125 143.762 339.715 143.856 339.344 144.045C338.979 144.234 338.663 144.494 338.396 144.826C338.136 145.158 337.931 145.539 337.781 145.969C337.638 146.392 337.566 146.841 337.566 147.316ZM353.904 150.949V138H355.721V153H354.061L353.904 150.949ZM346.795 147.834V147.629C346.795 146.822 346.893 146.089 347.088 145.432C347.29 144.768 347.573 144.198 347.938 143.723C348.309 143.247 348.748 142.883 349.256 142.629C349.77 142.368 350.343 142.238 350.975 142.238C351.639 142.238 352.218 142.355 352.713 142.59C353.214 142.818 353.637 143.153 353.982 143.596C354.334 144.032 354.611 144.559 354.812 145.178C355.014 145.796 355.154 146.496 355.232 147.277V148.176C355.161 148.951 355.021 149.647 354.812 150.266C354.611 150.884 354.334 151.411 353.982 151.848C353.637 152.284 353.214 152.619 352.713 152.854C352.212 153.081 351.626 153.195 350.955 153.195C350.337 153.195 349.77 153.062 349.256 152.795C348.748 152.528 348.309 152.154 347.938 151.672C347.573 151.19 347.29 150.624 347.088 149.973C346.893 149.315 346.795 148.602 346.795 147.834ZM348.611 147.629V147.834C348.611 148.361 348.663 148.856 348.768 149.318C348.878 149.781 349.048 150.188 349.275 150.539C349.503 150.891 349.793 151.167 350.145 151.369C350.496 151.564 350.916 151.662 351.404 151.662C352.003 151.662 352.495 151.535 352.879 151.281C353.27 151.027 353.582 150.692 353.816 150.275C354.051 149.859 354.233 149.406 354.363 148.918V146.564C354.285 146.206 354.171 145.861 354.021 145.529C353.878 145.191 353.689 144.891 353.455 144.631C353.227 144.364 352.944 144.152 352.605 143.996C352.273 143.84 351.88 143.762 351.424 143.762C350.929 143.762 350.503 143.866 350.145 144.074C349.793 144.276 349.503 144.556 349.275 144.914C349.048 145.266 348.878 145.676 348.768 146.145C348.663 146.607 348.611 147.102 348.611 147.629ZM360.496 142.434V153H358.68V142.434H360.496ZM358.543 139.631C358.543 139.338 358.631 139.09 358.807 138.889C358.989 138.687 359.256 138.586 359.607 138.586C359.952 138.586 360.216 138.687 360.398 138.889C360.587 139.09 360.682 139.338 360.682 139.631C360.682 139.911 360.587 140.152 360.398 140.354C360.216 140.549 359.952 140.646 359.607 140.646C359.256 140.646 358.989 140.549 358.807 140.354C358.631 140.152 358.543 139.911 358.543 139.631ZM365.203 144.689V153H363.396V142.434H365.105L365.203 144.689ZM364.773 147.316L364.021 147.287C364.028 146.564 364.135 145.897 364.344 145.285C364.552 144.667 364.845 144.13 365.223 143.674C365.6 143.218 366.049 142.867 366.57 142.619C367.098 142.365 367.68 142.238 368.318 142.238C368.839 142.238 369.308 142.31 369.725 142.453C370.141 142.59 370.496 142.811 370.789 143.117C371.089 143.423 371.316 143.82 371.473 144.309C371.629 144.79 371.707 145.38 371.707 146.076V153H369.891V146.057C369.891 145.503 369.809 145.061 369.646 144.729C369.484 144.39 369.246 144.146 368.934 143.996C368.621 143.84 368.237 143.762 367.781 143.762C367.332 143.762 366.922 143.856 366.551 144.045C366.186 144.234 365.87 144.494 365.604 144.826C365.343 145.158 365.138 145.539 364.988 145.969C364.845 146.392 364.773 146.841 364.773 147.316ZM381.297 142.434H382.938V152.775C382.938 153.706 382.749 154.501 382.371 155.158C381.993 155.816 381.466 156.314 380.789 156.652C380.118 156.997 379.344 157.17 378.465 157.17C378.1 157.17 377.671 157.111 377.176 156.994C376.688 156.883 376.206 156.691 375.73 156.418C375.262 156.151 374.868 155.79 374.549 155.334L375.496 154.26C375.939 154.794 376.401 155.165 376.883 155.373C377.371 155.581 377.853 155.686 378.328 155.686C378.901 155.686 379.396 155.578 379.812 155.363C380.229 155.148 380.551 154.829 380.779 154.406C381.014 153.99 381.131 153.475 381.131 152.863V144.758L381.297 142.434ZM374.021 147.834V147.629C374.021 146.822 374.116 146.089 374.305 145.432C374.5 144.768 374.777 144.198 375.135 143.723C375.499 143.247 375.939 142.883 376.453 142.629C376.967 142.368 377.547 142.238 378.191 142.238C378.855 142.238 379.435 142.355 379.93 142.59C380.431 142.818 380.854 143.153 381.199 143.596C381.551 144.032 381.827 144.559 382.029 145.178C382.231 145.796 382.371 146.496 382.449 147.277V148.176C382.378 148.951 382.238 149.647 382.029 150.266C381.827 150.884 381.551 151.411 381.199 151.848C380.854 152.284 380.431 152.619 379.93 152.854C379.428 153.081 378.842 153.195 378.172 153.195C377.54 153.195 376.967 153.062 376.453 152.795C375.945 152.528 375.509 152.154 375.145 151.672C374.78 151.19 374.5 150.624 374.305 149.973C374.116 149.315 374.021 148.602 374.021 147.834ZM375.828 147.629V147.834C375.828 148.361 375.88 148.856 375.984 149.318C376.095 149.781 376.261 150.188 376.482 150.539C376.71 150.891 377 151.167 377.352 151.369C377.703 151.564 378.123 151.662 378.611 151.662C379.21 151.662 379.705 151.535 380.096 151.281C380.486 151.027 380.796 150.692 381.023 150.275C381.258 149.859 381.44 149.406 381.57 148.918V146.564C381.499 146.206 381.388 145.861 381.238 145.529C381.095 145.191 380.906 144.891 380.672 144.631C380.444 144.364 380.161 144.152 379.822 143.996C379.484 143.84 379.087 143.762 378.631 143.762C378.136 143.762 377.71 143.866 377.352 144.074C377 144.276 376.71 144.556 376.482 144.914C376.261 145.266 376.095 145.676 375.984 146.145C375.88 146.607 375.828 147.102 375.828 147.629ZM393.338 153H391.531V141.32C391.531 140.559 391.668 139.917 391.941 139.396C392.221 138.869 392.622 138.472 393.143 138.205C393.663 137.932 394.282 137.795 394.998 137.795C395.206 137.795 395.415 137.808 395.623 137.834C395.838 137.86 396.046 137.899 396.248 137.951L396.15 139.426C396.014 139.393 395.857 139.37 395.682 139.357C395.512 139.344 395.343 139.338 395.174 139.338C394.79 139.338 394.458 139.416 394.178 139.572C393.904 139.722 393.696 139.943 393.553 140.236C393.41 140.529 393.338 140.891 393.338 141.32V153ZM395.584 142.434V143.82H389.861V142.434H395.584ZM397.117 147.834V147.609C397.117 146.848 397.228 146.141 397.449 145.49C397.671 144.833 397.99 144.263 398.406 143.781C398.823 143.293 399.327 142.915 399.92 142.648C400.512 142.375 401.176 142.238 401.912 142.238C402.654 142.238 403.322 142.375 403.914 142.648C404.513 142.915 405.021 143.293 405.438 143.781C405.861 144.263 406.183 144.833 406.404 145.49C406.626 146.141 406.736 146.848 406.736 147.609V147.834C406.736 148.596 406.626 149.302 406.404 149.953C406.183 150.604 405.861 151.174 405.438 151.662C405.021 152.144 404.516 152.521 403.924 152.795C403.338 153.062 402.674 153.195 401.932 153.195C401.189 153.195 400.522 153.062 399.93 152.795C399.337 152.521 398.829 152.144 398.406 151.662C397.99 151.174 397.671 150.604 397.449 149.953C397.228 149.302 397.117 148.596 397.117 147.834ZM398.924 147.609V147.834C398.924 148.361 398.986 148.859 399.109 149.328C399.233 149.79 399.419 150.201 399.666 150.559C399.92 150.917 400.236 151.2 400.613 151.408C400.991 151.61 401.43 151.711 401.932 151.711C402.426 151.711 402.859 151.61 403.23 151.408C403.608 151.2 403.921 150.917 404.168 150.559C404.415 150.201 404.601 149.79 404.725 149.328C404.855 148.859 404.92 148.361 404.92 147.834V147.609C404.92 147.089 404.855 146.597 404.725 146.135C404.601 145.666 404.412 145.253 404.158 144.895C403.911 144.53 403.598 144.243 403.221 144.035C402.85 143.827 402.413 143.723 401.912 143.723C401.417 143.723 400.981 143.827 400.604 144.035C400.232 144.243 399.92 144.53 399.666 144.895C399.419 145.253 399.233 145.666 399.109 146.135C398.986 146.597 398.924 147.089 398.924 147.609ZM410.809 144.094V153H409.002V142.434H410.76L410.809 144.094ZM414.109 142.375L414.1 144.055C413.95 144.022 413.807 144.003 413.67 143.996C413.54 143.983 413.39 143.977 413.221 143.977C412.804 143.977 412.436 144.042 412.117 144.172C411.798 144.302 411.528 144.484 411.307 144.719C411.085 144.953 410.91 145.233 410.779 145.559C410.656 145.878 410.574 146.229 410.535 146.613L410.027 146.906C410.027 146.268 410.089 145.669 410.213 145.109C410.343 144.549 410.542 144.055 410.809 143.625C411.076 143.189 411.414 142.85 411.824 142.609C412.241 142.362 412.736 142.238 413.309 142.238C413.439 142.238 413.589 142.255 413.758 142.287C413.927 142.313 414.044 142.342 414.109 142.375ZM422.898 138.781V153H421.014V138.781H422.898ZM431.482 138.781L425.574 145.412L422.254 148.859L421.941 146.848L424.441 144.094L429.217 138.781H431.482ZM429.666 153L424.402 146.066L425.525 144.572L431.912 153H429.666ZM435.262 142.434V153H433.445V142.434H435.262ZM433.309 139.631C433.309 139.338 433.396 139.09 433.572 138.889C433.755 138.687 434.021 138.586 434.373 138.586C434.718 138.586 434.982 138.687 435.164 138.889C435.353 139.09 435.447 139.338 435.447 139.631C435.447 139.911 435.353 140.152 435.164 140.354C434.982 140.549 434.718 140.646 434.373 140.646C434.021 140.646 433.755 140.549 433.572 140.354C433.396 140.152 433.309 139.911 433.309 139.631ZM444.822 150.949V138H446.639V153H444.979L444.822 150.949ZM437.713 147.834V147.629C437.713 146.822 437.811 146.089 438.006 145.432C438.208 144.768 438.491 144.198 438.855 143.723C439.227 143.247 439.666 142.883 440.174 142.629C440.688 142.368 441.261 142.238 441.893 142.238C442.557 142.238 443.136 142.355 443.631 142.59C444.132 142.818 444.555 143.153 444.9 143.596C445.252 144.032 445.529 144.559 445.73 145.178C445.932 145.796 446.072 146.496 446.15 147.277V148.176C446.079 148.951 445.939 149.647 445.73 150.266C445.529 150.884 445.252 151.411 444.9 151.848C444.555 152.284 444.132 152.619 443.631 152.854C443.13 153.081 442.544 153.195 441.873 153.195C441.255 153.195 440.688 153.062 440.174 152.795C439.666 152.528 439.227 152.154 438.855 151.672C438.491 151.19 438.208 150.624 438.006 149.973C437.811 149.315 437.713 148.602 437.713 147.834ZM439.529 147.629V147.834C439.529 148.361 439.581 148.856 439.686 149.318C439.796 149.781 439.965 150.188 440.193 150.539C440.421 150.891 440.711 151.167 441.062 151.369C441.414 151.564 441.834 151.662 442.322 151.662C442.921 151.662 443.413 151.535 443.797 151.281C444.188 151.027 444.5 150.692 444.734 150.275C444.969 149.859 445.151 149.406 445.281 148.918V146.564C445.203 146.206 445.089 145.861 444.939 145.529C444.796 145.191 444.607 144.891 444.373 144.631C444.145 144.364 443.862 144.152 443.523 143.996C443.191 143.84 442.798 143.762 442.342 143.762C441.847 143.762 441.421 143.866 441.062 144.074C440.711 144.276 440.421 144.556 440.193 144.914C439.965 145.266 439.796 145.676 439.686 146.145C439.581 146.607 439.529 147.102 439.529 147.629ZM455.604 150.197C455.604 149.937 455.545 149.696 455.428 149.475C455.317 149.247 455.086 149.042 454.734 148.859C454.389 148.671 453.868 148.508 453.172 148.371C452.586 148.247 452.055 148.101 451.58 147.932C451.111 147.762 450.711 147.557 450.379 147.316C450.053 147.076 449.803 146.792 449.627 146.467C449.451 146.141 449.363 145.76 449.363 145.324C449.363 144.908 449.454 144.514 449.637 144.143C449.826 143.771 450.089 143.443 450.428 143.156C450.773 142.87 451.186 142.645 451.668 142.482C452.15 142.32 452.687 142.238 453.279 142.238C454.126 142.238 454.848 142.388 455.447 142.688C456.046 142.987 456.505 143.387 456.824 143.889C457.143 144.383 457.303 144.934 457.303 145.539H455.496C455.496 145.246 455.408 144.963 455.232 144.689C455.063 144.41 454.812 144.178 454.48 143.996C454.155 143.814 453.755 143.723 453.279 143.723C452.778 143.723 452.371 143.801 452.059 143.957C451.753 144.107 451.528 144.299 451.385 144.533C451.248 144.768 451.18 145.015 451.18 145.275C451.18 145.471 451.212 145.646 451.277 145.803C451.349 145.952 451.473 146.092 451.648 146.223C451.824 146.346 452.072 146.464 452.391 146.574C452.71 146.685 453.117 146.796 453.611 146.906C454.477 147.102 455.19 147.336 455.75 147.609C456.31 147.883 456.727 148.218 457 148.615C457.273 149.012 457.41 149.494 457.41 150.061C457.41 150.523 457.312 150.946 457.117 151.33C456.928 151.714 456.652 152.046 456.287 152.326C455.929 152.6 455.499 152.814 454.998 152.971C454.503 153.12 453.947 153.195 453.328 153.195C452.397 153.195 451.609 153.029 450.965 152.697C450.32 152.365 449.832 151.936 449.5 151.408C449.168 150.881 449.002 150.324 449.002 149.738H450.818C450.844 150.233 450.988 150.627 451.248 150.92C451.508 151.206 451.827 151.411 452.205 151.535C452.583 151.652 452.957 151.711 453.328 151.711C453.823 151.711 454.236 151.646 454.568 151.516C454.907 151.385 455.164 151.206 455.34 150.979C455.516 150.751 455.604 150.49 455.604 150.197ZM459.812 152.043C459.812 151.737 459.907 151.48 460.096 151.271C460.291 151.057 460.571 150.949 460.936 150.949C461.3 150.949 461.577 151.057 461.766 151.271C461.961 151.48 462.059 151.737 462.059 152.043C462.059 152.342 461.961 152.596 461.766 152.805C461.577 153.013 461.3 153.117 460.936 153.117C460.571 153.117 460.291 153.013 460.096 152.805C459.907 152.596 459.812 152.342 459.812 152.043Z" fill="white"/>
<path d="M53.8597 116.799L68.1971 91.9423C68.7328 91.0134 69.7236 90.4412 70.7958 90.4412H83.3028C84.1097 90.4412 84.8826 90.7662 85.447 91.3429L138.808 145.871C141.157 148.271 138.392 152.128 135.365 150.673L74.8461 121.594C74.4406 121.399 73.9966 121.298 73.5468 121.298H56.4584C54.1496 121.298 52.7061 118.799 53.8597 116.799Z" fill="#0083A4"/>
<path d="M77.9696 74.1939L99.0928 38.4555C100.266 36.4713 103.145 36.4958 104.284 38.4996L166.458 147.892C168.176 150.915 164.236 153.95 161.751 151.519L88.2356 79.5763C87.6749 79.0276 86.9217 78.7204 86.1373 78.7204H80.5522C78.2291 78.7204 76.7875 76.1938 77.9696 74.1939Z" fill="#01B2DD"/>
<path d="M70.9073 131.794H46.2807C45.1902 131.794 44.1855 132.386 43.6568 133.34L29.3385 159.173C27.9433 161.69 30.5492 164.537 33.1796 163.369L82.2225 141.598C84.6458 140.522 84.5847 137.062 82.1249 136.073L72.0269 132.011C71.671 131.868 71.2909 131.794 70.9073 131.794Z" fill="#00506E"/>
</svg>
